HIERARCHY
ROOT Hips
{
	OFFSET -14.64140 90.27770 -84.91600
	CHANNELS 6 Xposition Yposition Zposition Zrotation Xrotation Yrotation
	JOINT Spine
	{
		OFFSET 0.00000 13.20850 -1.60440
		CHANNELS 3 Zrotation Xrotation Yrotation
		JOINT Spine1
		{
			OFFSET 0.00000 8.61720 0.00000
			CHANNELS 3 Zrotation Xrotation Yrotation
			JOINT Spine2
			{
				OFFSET 0.00000 8.61720 0.00000
				CHANNELS 3 Zrotation Xrotation Yrotation
				JOINT Spine3
				{
					OFFSET 0.00000 8.61720 0.00000
					CHANNELS 3 Zrotation Xrotation Yrotation
					JOINT Neck
					{
						OFFSET 0.00000 11.07920 1.10790
						CHANNELS 3 Zrotation Xrotation Yrotation
						JOINT Neck1
						{
							OFFSET 0.00000 7.08030 0.00000
							CHANNELS 3 Zrotation Xrotation Yrotation
							JOINT Head
							{
								OFFSET 0.00000 7.08030 0.00000
								CHANNELS 3 Zrotation Xrotation Yrotation
								End site
								{
									OFFSET 0.00000 0.00000 0.00000
								}
							}
						}
					}
					JOINT RightShoulder
					{
						OFFSET -0.01000 7.91370 5.19710
						CHANNELS 3 Zrotation Xrotation Yrotation
						JOINT RightArm
						{
							OFFSET -18.41580 0.00000 0.00000
							CHANNELS 3 Zrotation Xrotation Yrotation
							JOINT RightForeArm
							{
								OFFSET -29.11090 0.00000 0.00000
								CHANNELS 3 Zrotation Xrotation Yrotation
								JOINT RightHand
								{
									OFFSET -24.65040 0.00000 0.00000
									CHANNELS 3 Zrotation Xrotation Yrotation
									JOINT RightHandThumb1
									{
										OFFSET -5.35110 -0.85590 3.97910
										CHANNELS 3 Zrotation Xrotation Yrotation
										JOINT RightHandThumb2
										{
											OFFSET -4.52790 0.00000 0.00000
											CHANNELS 3 Zrotation Xrotation Yrotation
											JOINT RightHandThumb3
											{
												OFFSET -2.46980 0.00000 0.00000
												CHANNELS 3 Zrotation Xrotation Yrotation
												End site
												{
													OFFSET 0.00000 0.00000 0.00000
												}
											}
										}
									}
									JOINT RightHandIndex1
									{
										OFFSET -14.26970 0.00000 2.88140
										CHANNELS 3 Zrotation Xrotation Yrotation
										JOINT RightHandIndex2
										{
											OFFSET -5.48840 0.00000 0.00000
											CHANNELS 3 Zrotation Xrotation Yrotation
											JOINT RightHandIndex3
											{
												OFFSET -3.01860 0.00000 0.00000
												CHANNELS 3 Zrotation Xrotation Yrotation
												End site
												{
													OFFSET 0.00000 0.00000 0.00000
												}
											}
										}
									}
									JOINT RightHandMiddle1
									{
										OFFSET -14.26970 0.00000 -0.09150
										CHANNELS 3 Zrotation Xrotation Yrotation
										JOINT RightHandMiddle2
										{
											OFFSET -6.17440 0.00000 0.00000
											CHANNELS 3 Zrotation Xrotation Yrotation
											JOINT RightHandMiddle3
											{
												OFFSET -3.56740 0.00000 0.00000
												CHANNELS 3 Zrotation Xrotation Yrotation
												End site
												{
													OFFSET 0.00000 0.00000 0.00000
												}
											}
										}
									}
									JOINT RightHandRing1
									{
										OFFSET -12.69180 0.00000 -3.06430
										CHANNELS 3 Zrotation Xrotation Yrotation
										JOINT RightHandRing2
										{
											OFFSET -5.62560 0.00000 0.00000
											CHANNELS 3 Zrotation Xrotation Yrotation
											JOINT RightHandRing3
											{
												OFFSET -3.56740 0.00000 0.00000
												CHANNELS 3 Zrotation Xrotation Yrotation
												End site
												{
													OFFSET 0.00000 0.00000 0.00000
												}
											}
										}
									}
									JOINT RightHandPinky1
									{
										OFFSET -11.11390 0.00000 -6.03720
										CHANNELS 3 Zrotation Xrotation Yrotation
										JOINT RightHandPinky2
										{
											OFFSET -4.52790 0.00000 0.00000
											CHANNELS 3 Zrotation Xrotation Yrotation
											JOINT RightHandPinky3
											{
												OFFSET -2.46980 0.00000 0.00000
												CHANNELS 3 Zrotation Xrotation Yrotation
												End site
												{
													OFFSET 0.00000 0.00000 0.00000
												}
											}
										}
									}
								}
							}
						}
					}
					JOINT LeftShoulder
					{
						OFFSET 0.01000 7.91370 5.19710
						CHANNELS 3 Zrotation Xrotation Yrotation
						JOINT LeftArm
						{
							OFFSET 18.41580 0.00000 0.00000
							CHANNELS 3 Zrotation Xrotation Yrotation
							JOINT LeftForeArm
							{
								OFFSET 29.11090 0.00000 0.00000
								CHANNELS 3 Zrotation Xrotation Yrotation
								JOINT LeftHand
								{
									OFFSET 24.65040 0.00000 0.00000
									CHANNELS 3 Zrotation Xrotation Yrotation
									JOINT LeftHandThumb1
									{
										OFFSET 5.35110 -0.85590 3.97910
										CHANNELS 3 Zrotation Xrotation Yrotation
										JOINT LeftHandThumb2
										{
											OFFSET 4.52790 0.00000 0.00000
											CHANNELS 3 Zrotation Xrotation Yrotation
											JOINT LeftHandThumb3
											{
												OFFSET 2.46980 0.00000 0.00000
												CHANNELS 3 Zrotation Xrotation Yrotation
												End site
												{
													OFFSET 0.00000 0.00000 0.00000
												}
											}
										}
									}
									JOINT LeftHandIndex1
									{
										OFFSET 14.26970 0.00000 2.88140
										CHANNELS 3 Zrotation Xrotation Yrotation
										JOINT LeftHandIndex2
										{
											OFFSET 5.48840 0.00000 0.00000
											CHANNELS 3 Zrotation Xrotation Yrotation
											JOINT LeftHandIndex3
											{
												OFFSET 3.01860 0.00000 0.00000
												CHANNELS 3 Zrotation Xrotation Yrotation
												End site
												{
													OFFSET 0.00000 0.00000 0.00000
												}
											}
										}
									}
									JOINT LeftHandMiddle1
									{
										OFFSET 14.26970 0.00000 -0.09150
										CHANNELS 3 Zrotation Xrotation Yrotation
										JOINT LeftHandMiddle2
										{
											OFFSET 6.17440 0.00000 0.00000
											CHANNELS 3 Zrotation Xrotation Yrotation
											JOINT LeftHandMiddle3
											{
												OFFSET 3.56740 0.00000 0.00000
												CHANNELS 3 Zrotation Xrotation Yrotation
												End site
												{
													OFFSET 0.00000 0.00000 0.00000
												}
											}
										}
									}
									JOINT LeftHandRing1
									{
										OFFSET 12.69180 0.00000 -3.06430
										CHANNELS 3 Zrotation Xrotation Yrotation
										JOINT LeftHandRing2
										{
											OFFSET 5.62560 0.00000 0.00000
											CHANNELS 3 Zrotation Xrotation Yrotation
											JOINT LeftHandRing3
											{
												OFFSET 3.56740 0.00000 0.00000
												CHANNELS 3 Zrotation Xrotation Yrotation
												End site
												{
													OFFSET 0.00000 0.00000 0.00000
												}
											}
										}
									}
									JOINT LeftHandPinky1
									{
										OFFSET 11.11390 0.00000 -6.03720
										CHANNELS 3 Zrotation Xrotation Yrotation
										JOINT LeftHandPinky2
										{
											OFFSET 4.52790 0.00000 0.00000
											CHANNELS 3 Zrotation Xrotation Yrotation
											JOINT LeftHandPinky3
											{
												OFFSET 2.46980 0.00000 0.00000
												CHANNELS 3 Zrotation Xrotation Yrotation
												End site
												{
													OFFSET 0.00000 0.00000 0.00000
												}
											}
										}
									}
								}
							}
						}
					}
					JOINT pCube4
					{
						OFFSET 0.00000 10.91090 1.10790
						CHANNELS 3 Zrotation Xrotation Yrotation
						End site
						{
							OFFSET 0.00000 0.00000 0.00000
						}
					}
				}
			}
		}
	}
	JOINT RightUpLeg
	{
		OFFSET -9.98440 0.00000 0.00000
		CHANNELS 3 Zrotation Xrotation Yrotation
		JOINT RightLeg
		{
			OFFSET 0.00000 -42.11790 0.00000
			CHANNELS 3 Zrotation Xrotation Yrotation
			JOINT RightFoot
			{
				OFFSET 0.00000 -45.00020 -0.00000
				CHANNELS 3 Zrotation Xrotation Yrotation
				JOINT RightForeFoot
				{
					OFFSET 0.00000 -3.74820 0.00000
					CHANNELS 3 Zrotation Xrotation Yrotation
					JOINT RightToeBase
					{
						OFFSET 0.00000 0.06320 14.43120
						CHANNELS 3 Zrotation Xrotation Yrotation
						End site
						{
							OFFSET 0.00000 0.00000 0.00000
						}
					}
				}
			}
		}
	}
	JOINT LeftUpLeg
	{
		OFFSET 9.98440 0.00000 0.00000
		CHANNELS 3 Zrotation Xrotation Yrotation
		JOINT LeftLeg
		{
			OFFSET 0.00000 -42.11800 0.00000
			CHANNELS 3 Zrotation Xrotation Yrotation
			JOINT LeftFoot
			{
				OFFSET 0.00000 -45.00070 0.00000
				CHANNELS 3 Zrotation Xrotation Yrotation
				JOINT LeftForeFoot
				{
					OFFSET 0.00000 -3.74820 0.00000
					CHANNELS 3 Zrotation Xrotation Yrotation
					JOINT LeftToeBase
					{
						OFFSET 0.00000 0.06330 14.43110
						CHANNELS 3 Zrotation Xrotation Yrotation
						End site
						{
							OFFSET 0.00000 0.00000 0.00000
						}
					}
				}
			}
		}
	}
}
MOTION
Frames: 4
Frame Time: 0.050000
0.0 0.0 0.0 -0.0 0.0 -0.0 -1.304660710889455 3.501773059811814 -1.0127555900395844 -0.9790109708980154 3.8221164920274697 0.47468782282411454 -0.9865919669230571 -0.7648611744787113 -0.3877461024199046 0.05506016384002024 0.3247361875300292 -0.6506475128091906 -0.18031844869007474 11.391812288216972 -0.1729567492794942 0.003229509522454506 -0.7115471307123585 -2.3185777065914692 0.1894522245063551 -15.851249934098607 -0.1255106199416448 -2.7329678971728577 2.0986917598623744 -13.820466689713498 67.54946946651789 15.890946596975374 -4.41521780761512 -4.512101877233363 2.0090302482959963 60.83743716776884 13.953889474338759 -0.7961347430718582 -2.5074703941436542 7.402 0.1366 1.1948 0.0 0.0 -52.8735 -0.0 -0.0 -52.8735 -43.5518 0.0 0.0 -0.0 -0.0 -0.0 -0.0 -0.0 -0.0 -51.064 -0.0 0.0 -0.0 0.0 0.0 0.0 0.0 -0.0 -33.1153 0.0 -0.0 0.0 0.0 -0.0 -0.0 0.0 0.0 104.568 0.0 -0.0 125.482 0.0 -0.0 125.482 -0.0 -0.0 3.63481551023739 2.0861774223076424 12.553893899776774 -64.13723395884733 23.988861759603335 10.01307459912778 2.4289510538170203 2.673167732849196 -64.67658627483674 -10.66900996535841 -0.22706890441122732 0.32831429447045535 -13.9606 1.9849 -7.9316 0.0 0.0 44.5068 -0.0 0.0 44.5068 57.0533 0.0 0.0 -0.0 -0.0 -0.0 -0.0 -0.0 0.0 55.9265 0.0 -0.0 0.0 0.0 0.0 -0.0 0.0 -0.0 37.5571 0.0 -0.0 -0.0 -0.0 -0.0 0.0 0.0 0.0 -26.2296 0.0 -0.0 -31.4755 -0.0 -0.0 -31.4755 -0.0 0.0 0.0 0.0 -0.0 5.47 2.1382 -22.3439 0.0002 19.4596 0.0179 -7.5588 -21.4096 -1.9112 0.0 0.0 -0.0 0.0 4.1027 -0.0 14.6345 -3.5149 19.9819 -0.0 44.9992 0.0212 -11.6008 -13.3246 -5.0848 0.0 0.0 -0.0 0.0 -13.5769 -0.0
0.0 0.0 0.0 -0.0 0.0 -0.0 0.6742344546441416 2.9812792856254537 -1.7088832547681658 -0.9757970702167222 3.869591767428399 0.47262788025555524 -0.8325012270187377 -0.7798838874430738 -0.40562498305295297 -0.018148178168967317 0.10541076385368751 -0.4602480238681954 -0.6071758254891233 12.159641663831644 0.3074160818748167 0.11076511259284422 -0.7468956361813616 0.07791606850498915 0.20943520726350914 -16.30765176480658 0.03209587418245785 -5.216341795552779 3.546096747913596 -15.187544880614432 73.20911160655494 16.46121274627154 -3.365364009790106 -13.735647359549466 -14.101762942756238 50.47383981413801 15.589264594580081 -0.667454914391928 -1.5336931659268507 7.402 0.1366 1.1948 0.0 0.0 -52.8735 -0.0 -0.0 -52.8735 -43.5518 0.0 0.0 -0.0 -0.0 -0.0 -0.0 -0.0 -0.0 -51.064 -0.0 0.0 -0.0 0.0 0.0 0.0 0.0 -0.0 -33.1153 0.0 -0.0 0.0 0.0 -0.0 -0.0 0.0 0.0 104.568 0.0 -0.0 125.482 0.0 -0.0 125.482 -0.0 -0.0 6.156700038526705 3.3350485583849965 13.334221687466474 -64.74558600153229 29.029406568687058 4.905325772582982 10.30484674626242 -12.757860489379361 -55.05751519003722 -14.226813752165093 -0.5037399581069257 1.5540552265288687 -13.9606 1.9849 -7.9316 0.0 0.0 44.5068 -0.0 0.0 44.5068 57.0533 0.0 0.0 -0.0 -0.0 -0.0 -0.0 -0.0 0.0 55.9265 0.0 -0.0 0.0 0.0 0.0 -0.0 0.0 -0.0 37.5571 0.0 -0.0 -0.0 -0.0 -0.0 0.0 0.0 0.0 -26.2296 0.0 -0.0 -31.4755 -0.0 -0.0 -31.4755 -0.0 0.0 0.0 0.0 -0.0 5.47 2.1382 -22.3439 0.0002 19.4596 0.0179 -7.5588 -21.4096 -1.9112 0.0 0.0 -0.0 0.0 4.1027 -0.0 14.6345 -3.5149 19.9819 -0.0 44.9992 0.0212 -11.6008 -13.3246 -5.0848 0.0 0.0 -0.0 0.0 -13.5769 -0.0
0.0 0.0 0.0 -0.0 0.0 -0.0 1.8148756314641212 2.829362692409683 -2.1097108630088965 -0.9712382541457978 3.831473769164583 0.4715066946963057 -0.716489331328223 -0.7523144054419945 -0.4712307902184653 -0.07950729584971483 -0.0500271276907063 -0.3670422036376048 -0.929884050194977 12.763197659434317 0.5431202279744856 0.148003495904992 -0.6662906213389279 1.3461922831423212 0.19626521624902385 -16.465853028367068 0.11324085559260821 -6.874954405635399 4.493296631971192 -15.551699682749833 77.72918086537396 20.22574513712078 0.09363885466922467 -17.654097591494242 -15.666894443147115 49.20990606299736 14.517705151008862 -0.5406377261078023 -1.234360648728336 7.402 0.1366 1.1948 0.0 0.0 -52.8735 -0.0 -0.0 -52.8735 -43.5518 0.0 0.0 -0.0 -0.0 -0.0 -0.0 -0.0 -0.0 -51.064 -0.0 0.0 -0.0 0.0 0.0 0.0 0.0 -0.0 -33.1153 0.0 -0.0 0.0 0.0 -0.0 -0.0 0.0 0.0 104.568 0.0 -0.0 125.482 0.0 -0.0 125.482 -0.0 -0.0 8.255693375655897 4.3323796940912995 13.43947300429785 -62.05641735606869 36.141115377387216 -2.7183560954970836 17.275801399961804 -21.08980144714599 -56.28191337885019 -15.340943207583836 -0.742006658629206 2.343236709362023 -13.9606 1.9849 -7.9316 0.0 0.0 44.5068 -0.0 0.0 44.5068 57.0533 0.0 0.0 -0.0 -0.0 -0.0 -0.0 -0.0 0.0 55.9265 0.0 -0.0 0.0 0.0 0.0 -0.0 0.0 -0.0 37.5571 0.0 -0.0 -0.0 -0.0 -0.0 0.0 0.0 0.0 -26.2296 0.0 -0.0 -31.4755 -0.0 -0.0 -31.4755 -0.0 0.0 0.0 0.0 -0.0 5.47 2.1382 -22.3439 0.0002 19.4596 0.0179 -7.5588 -21.4096 -1.9112 0.0 0.0 -0.0 0.0 4.1027 -0.0 14.6345 -3.5149 19.9819 -0.0 44.9992 0.0212 -11.6008 -13.3246 -5.0848 0.0 0.0 -0.0 0.0 -13.5769 -0.0
0.0 0.0 0.0 -0.0 0.0 -0.0 1.604416522738084 2.602990410313145 -2.0715683564729024 -0.9810427084695998 3.9244217569366047 0.46292627422816585 -0.7352639432689568 -0.89367173039005 -0.6083124154605466 -0.035552106097804334 -0.062137123455018525 -0.3996357784876335 -0.9886660689244166 13.530893475123918 0.4497749419443834 0.13814567262820737 -0.5312111679224772 1.228648132624248 0.20412801606792996 -16.410096399283084 0.10340902762011184 -7.670040769629094 4.763505879856823 -15.266380732638245 77.34283223728197 23.002267501970948 3.32797196726868 -15.558498822690533 -11.346481161225705 48.58311287178748 12.181092509866557 -0.027023234678894097 -0.05765747061840331 7.402 0.1366 1.1948 0.0 0.0 -52.8735 -0.0 -0.0 -52.8735 -43.5518 0.0 0.0 -0.0 -0.0 -0.0 -0.0 -0.0 -0.0 -51.064 -0.0 0.0 -0.0 0.0 0.0 0.0 0.0 -0.0 -33.1153 0.0 -0.0 0.0 0.0 -0.0 -0.0 0.0 0.0 104.568 0.0 -0.0 125.482 0.0 -0.0 125.482 -0.0 -0.0 9.329605145349438 4.762574846700179 13.310653308990533 -57.575670569830784 40.27516528515436 -9.227055809778385 19.562002477940776 -24.990171468657454 -59.407152885632705 -12.96160390067167 -0.381388490469393 1.1319338921958553 -13.9606 1.9849 -7.9316 0.0 0.0 44.5068 -0.0 0.0 44.5068 57.0533 0.0 0.0 -0.0 -0.0 -0.0 -0.0 -0.0 0.0 55.9265 0.0 -0.0 0.0 0.0 0.0 -0.0 0.0 -0.0 37.5571 0.0 -0.0 -0.0 -0.0 -0.0 0.0 0.0 0.0 -26.2296 0.0 -0.0 -31.4755 -0.0 -0.0 -31.4755 -0.0 0.0 0.0 0.0 -0.0 5.47 2.1382 -22.3439 0.0002 19.4596 0.0179 -7.5588 -21.4096 -1.9112 0.0 0.0 -0.0 0.0 4.1027 -0.0 14.6345 -3.5149 19.9819 -0.0 44.9992 0.0212 -11.6008 -13.3246 -5.0848 0.0 0.0 -0.0 0.0 -13.5769 -0.0
